<svg xmlns="http://www.w3.org/2000/svg" viewBox="0 0 1326.24 260.26"><defs><style>.cls-1{fill:#fff;stroke-width:2.5px;}.cls-1,.cls-2{stroke:#010101;stroke-miterlimit:10;}.cls-2{fill:#1d1e1b;}</style></defs><g id="Layer_2" data-name="Layer 2"><g id="Layer_1-2" data-name="Layer 1"><path class="cls-1" d="M1183.5,51.18h8.44c7.76,0,9.78,4,9.78,14.51V192.21c0,10.46-2.36,15.18-10.46,15.18h-7.76Zm-55,204.45h80c32.72,0,49.93-18.21,49.93-57.69V60c0-40.14-19.23-55.33-50.27-55.33h-79.62Z"/><path class="cls-2" d="M1304.8,225.28v11.65c0,4.79-1.88,6.46-5.52,6.46h-3.73a2.31,2.31,0,0,0-1.66.39V256.2h.21a7.08,7.08,0,0,1,3.6-.6h4.71c4.1,0,6.67-2.62,7.57-6.55.56,2.39,2.49,6.42,7.11,6.42h.47c5.18,0,8.18-4.11,8.18-13.4V213.13h-31.85v12.15Zm13.19,0v14c0,2.74-1.2,3.68-2.7,3.68h0c-1.54,0-2.74-1-2.74-3.68v-14Zm7.75-53h-31.85V207.9h8V184.31h4.37v22.78H1314V184.31h4v23.25h7.79Zm-31.85-29.49V155h23.16v13.75h8.69V129.08h-8.69v13.75Zm0-21.88v13.31l31.85-16.65V101.25L1293.89,85.5V97.83l5.13,2.44v18.19Zm13.1-6.38V104l11,5.23Zm18.75-66.7h-31.85V83.44h8V59.85h4.37V82.63H1314V59.85h4V83.1h7.79Zm-31.85-29.5V30.53h23.16V44.27h8.69V4.62h-8.69V18.37Z"/><path class="cls-1" d="M1040.12,152.73h7.76c7.76,0,9.44,3.71,9.44,12.15v72.87c0,9.11,2,14.85,4.39,17.88h55V254c-1.68-3.71-3.37-8.77-3.37-18.22v-83A34.64,34.64,0,0,0,1091.4,120c9.78-4.39,21.93-14.85,21.93-38.13V48.82c0-29.69-16.87-44.2-41.5-44.2H984.45v251h55.67Zm0-104.92h8.09c7.76,0,9.11,2.7,9.11,11.81V93.35c0,9.11-3,12.15-10.12,12.15h-7.08Z"/><path class="cls-1" d="M916.7,93l-2,76.24H899.53Zm47.88,162.61V4.62H897.35l-65,251h47.86l8.17-37H913v37Z"/><path class="cls-1" d="M776.74,93l-2,76.24H759.58Zm47.89,162.61V4.62H757.39l-65,251h47.86l8.17-37h24.65v37Z"/><path class="cls-1" d="M599.87,259c22.61,0,34.75-15.86,41.16-26.65,2.7,5.39,6.07,18.21,6.75,23.27h36.1V104.49H615.05v46.22h15.52v46.56c0,9.44-3.71,14.17-11.47,14.17-7.42,0-11.13-4.73-11.13-14.51V62.32c0-8.78,3-13.16,9.45-13.16,8.09,0,10.12,5.06,10.12,13.16V90.66h54v-29c0-30.36-11.47-60.39-60.39-60.39h-9.45c-45.88,0-61.4,30-61.4,63.76V202c0,30.7,15.52,57,46.89,57Z"/><path class="cls-1" d="M482.44,93l-2,76.24H465.28Zm47.89,162.61V4.62H463.09l-65,251H446l8.17-37h24.65v37Z"/><path class="cls-1" d="M342.49,93l-2,76.24H325.32Zm47.88,162.61V4.62H323.14l-65,251H306l8.17-37h24.66v37Z"/><polygon class="cls-1" points="150.39 4.62 150.39 255.63 251.61 255.63 251.61 202.33 206.06 202.33 206.06 4.62 150.39 4.62"/><path class="cls-1" d="M65,47.47c7.76,0,9.79,4.05,9.79,11.81V89c0,9.45-3.71,12.48-10.12,12.48H56.92v-54ZM66,145c8.09,0,10.46,3.71,10.46,12.82V197.6c0,10.8-2.7,13.5-9.45,13.5H56.92V145ZM1.25,255.63H89c30.36,0,45.54-19.23,45.54-58V160.49c0-29.69-16.19-39.13-28-42.84,8.1-2.7,23.28-14.17,23.28-38.13V51.86c0-34.08-15.52-47.24-44.19-47.24H1.25Z"/></g></g></svg>