<?xml version="1.0" encoding="UTF-8"?><svg id="a" xmlns="http://www.w3.org/2000/svg" width="443.26mm" height="114.21mm" viewBox="0 0 1256.48 323.75"><defs><style>.cls-1{fill:#1d1d1b;}</style></defs><g><path class="cls-1" d="M63.73,46.21c7.76,0,9.78,4.05,9.78,11.8v29.67c0,9.44-3.71,12.48-10.12,12.48h-7.76V46.21h8.1Zm1.01,97.45c8.09,0,10.45,3.71,10.45,12.81v39.79c0,10.79-2.7,13.49-9.44,13.49h-10.12v-66.09h9.11ZM0,254.26H87.67c30.35,0,45.52-19.22,45.52-58v-37.09c0-29.67-16.19-39.11-27.99-42.82,8.09-2.7,23.27-14.16,23.27-38.1v-27.65c0-34.06-15.51-47.21-44.17-47.21H0V254.26Z"/><path class="cls-1" d="M1181.61,49.92h8.43c7.75,0,9.78,4.05,9.78,14.5v126.45c0,10.45-2.36,15.17-10.45,15.17h-7.76V49.92h0Zm-54.96,204.34h79.92c32.71,0,49.91-18.21,49.91-57.66V58.68c0-40.13-19.22-55.3-50.24-55.3h-79.58V254.26h-.01Z"/><path class="cls-1" d="M1038.3,151.41h7.75c7.76,0,9.44,3.71,9.44,12.14v72.83c0,9.1,2.02,14.84,4.38,17.87h54.96v-1.69c-1.69-3.71-3.37-8.77-3.37-18.21v-82.95c0-18.55-12.48-29-21.92-32.71,9.78-4.38,21.92-14.84,21.92-38.1V47.55c0-29.67-16.86-44.17-41.47-44.17h-87.33V254.26h55.64v-102.84h0Zm0-104.88h8.09c7.75,0,9.1,2.7,9.1,11.8v33.72c0,9.1-3.03,12.14-10.12,12.14h-7.08V46.54h.01Z"/><path class="cls-1" d="M914.95,91.73l-1.98,76.21h-15.17l17.15-76.21h0Zm47.86,162.53V3.38h-67.2l-64.96,250.87h47.83l8.16-36.96h24.64v36.96h51.53Z"/><path class="cls-1" d="M775.07,91.73l-1.98,76.21h-15.17l17.15-76.21h0Zm47.86,162.53V3.38h-67.2l-64.96,250.87h47.83l8.16-36.96h24.64v36.96h51.53Z"/><path class="cls-1" d="M598.3,257.63c22.59,0,34.73-15.85,41.14-26.64,2.7,5.4,6.07,18.21,6.74,23.27h36.08V103.19h-68.79v46.2h15.51v46.53c0,9.44-3.71,14.16-11.46,14.16s-11.13-4.72-11.13-14.5V61.04c0-8.77,3.03-13.15,9.44-13.15,8.09,0,10.12,5.06,10.12,13.15v28.32h53.95v-29c0-30.35-11.46-60.36-60.36-60.36h-9.44c-45.86,0-61.37,30.01-61.37,63.73V200.64c0,30.68,15.51,56.99,46.87,56.99h2.7Z"/><path class="cls-1" d="M480.93,91.73l-1.98,76.21h-15.17l17.15-76.21h0Zm47.86,162.53V3.38h-67.2l-64.96,250.87h47.83l8.16-36.96h24.64v36.96h51.53Z"/><path class="cls-1" d="M341.05,91.73l-1.98,76.21h-15.17l17.15-76.21h0Zm47.86,162.53V3.38h-67.2l-64.96,250.87h47.83l8.16-36.96h24.64v36.96h51.53Z"/><polygon class="cls-1" points="149.06 3.38 149.06 254.26 250.22 254.26 250.22 200.98 204.7 200.98 204.7 3.38 149.06 3.38"/></g><path class="cls-1" d="M1221.77,311.92h12.61c5.19,0,7,2.04,7,5.98v4.03c0,.97,.09,1.44,.42,1.81h13.45v-.23c-.32-.6-.65-1.48-.65-3.89v-5.1c0-4.45-2.83-7.23-7.09-8.21,2.6-.6,6.95-2.69,6.95-7.7v-.51c0-5.61-4.45-8.86-14.51-8.86h-31.35v34.5h13.17v-11.82h0Zm0-14.28h15.12c2.97,0,3.99,1.3,3.99,2.92v.05c0,1.67-1.07,2.97-3.99,2.97h-15.12v-5.93h0Zm-59.6-8.4v34.5h38.53v-8.62h-25.55v-4.73h24.67v-8.39h-24.67v-4.31h25.18v-8.44h-38.16Zm-34.19,34.49h13.17v-25.08h14.88v-9.41h-42.94v9.41h14.88v25.08h0Zm-25.94,0h14.42l-18.04-34.5h-17.71l-17.06,34.5h13.35l2.64-5.56h19.71l2.69,5.56h0Zm-6.91-14.19h-11.45l5.66-11.87,5.8,11.87h-.01Zm-74.49-20.31v34.5h38.53v-8.62h-25.55v-4.73h24.67v-8.39h-24.67v-4.31h25.18v-8.44h-38.16Zm-34.19,34.49h13.17v-25.08h14.88v-9.41h-42.94v9.41h14.88v25.08h.01Z"/></svg>